<?xml version="1.0" encoding="UTF-8"?><!-- TACC-informal-Black-1c.svg --><svg xmlns="http://www.w3.org/2000/svg" viewBox="0 0 283.44 84.67"><defs><style>.cls-1{fill:none;}.cls-2{fill:#231f20;}</style></defs><g id="Layer_1_Image"><rect class="cls-1" x="-4.78" y="-4" width="290.67" height="93.33"/><path class="cls-2" d="m115.43,74.88l-4.96-20.09,13.81-12.12h-17.84l-5.99-20.25-6,20.25h-18.03l13.99,12.13-5,20.08,14.99-12.05,15.03,12.05Zm1,2"/><path class="cls-2" d="m5,7.8h64.88v17.06h-21.77v52.02h-21.34V24.86H5V7.8Z"/><path class="cls-2" d="m138.96,42.33c0-7.96,1.76-35.79,34.46-35.79s32.71,27.84,32.71,27.84l-19.54-.04s-.17-10.04-13.17-10.04-13.04,10.04-13.04,18.04,0,17.95,13.04,17.95,13.04-9.95,13.04-9.95h19.67s0,27.81-32.71,27.81-34.46-27.85-34.46-35.81Z"/><path class="cls-2" d="m212.46,42.33c0-7.96,1.76-35.79,34.46-35.79s32.71,27.84,32.71,27.84l-19.54-.04s-.17-10.04-13.17-10.04-13.04,10.04-13.04,18.04,0,17.95,13.04,17.95,13.04-9.95,13.04-9.95h19.67s0,27.81-32.71,27.81-34.46-27.85-34.46-35.81Z"/></g><g id="Layer_2"><polygon class="cls-2" points="62.75 76.88 82.02 76.88 86.95 55.83 73.6 44.27 62.75 76.88"/><polygon class="cls-2" points="137.99 76.88 118.73 76.88 113.79 55.83 127.15 44.27 137.99 76.88"/><polygon class="cls-2" points="75.13 39.62 92.1 39.62 100.35 11.81 108.55 39.61 125.58 39.61 115 7.81 85.7 7.81 75.13 39.62"/></g></svg>